<?xml version="1.0" standalone="no"?><!DOCTYPE svg PUBLIC "-//W3C//DTD SVG 1.1//EN" "http://www.w3.org/Graphics/SVG/1.1/DTD/svg11.dtd"><svg t="1734077818441" class="icon" viewBox="0 0 1024 1024" version="1.1" xmlns="http://www.w3.org/2000/svg" p-id="4163" xmlns:xlink="http://www.w3.org/1999/xlink" width="200" height="200"><path d="M842.666667 384h-74.666667V277.333333a234.666667 234.666667 0 1 0-469.333333 0v106.666667H224a53.393333 53.393333 0 0 0-53.333333 53.333333v490.666667a53.393333 53.393333 0 0 0 53.333333 53.333333h618.666667a53.393333 53.393333 0 0 0 53.333333-53.333333V437.333333a53.393333 53.393333 0 0 0-53.333333-53.333333z m-288 295.006667V789.333333a21.333333 21.333333 0 0 1-42.666667 0v-110.326666a64 64 0 1 1 42.666667 0zM725.333333 384H341.333333V277.333333c0-105.866667 86.133333-192 192-192s192 86.133333 192 192z" fill="#bfbfbf" p-id="4164"></path></svg>