<svg xmlns="http://www.w3.org/2000/svg" xmlns:xlink="http://www.w3.org/1999/xlink" width="512" height="512" viewBox="0 0 512 512">
  <defs>
    <linearGradient id="linear-gradient" x1="0.86" x2="0.49" y2="0.846" gradientUnits="objectBoundingBox">
      <stop offset="0" />
      <stop offset="1" />
    </linearGradient>
    <linearGradient id="linear-gradient-2" x1="0.681" y1="1" x2="0.525" y2="0.46" xlink:href="#linear-gradient"/>
    <linearGradient id="linear-gradient-3" x1="1" y1="0.166" x2="0.5" y2="0.405" xlink:href="#linear-gradient"/>
    <linearGradient id="linear-gradient-4" x1="0" x2="0.744" y2="0.424" xlink:href="#linear-gradient"/>
    <linearGradient id="linear-gradient-5" x1="0.5" x2="0.5" y2="1" gradientUnits="objectBoundingBox">
      <stop offset="0"/>
      <stop offset="1" />
    </linearGradient>
  </defs>
  <g id="组_3132" data-name="组 3132" transform="translate(-97.217 -58.728)" fill="currentColor">
    <path id="联合_223" data-name="联合 223" d="M214.374,114.347,386.93,0h8.627L223,114.347Zm-16.676,0L370.256,0h8.627L206.326,114.347Zm-16.674,0L353.581,0h8.627L189.65,114.347Zm-16.676,0L336.9,0h8.627L172.974,114.347Zm-16.676,0L320.229,0h8.627L156.3,114.347Zm-16.676,0L303.553,0h8.627L139.624,114.347Zm-16.676,0L286.879,0h8.627L122.949,114.347Zm-16.674,0L270.2,0h8.627L106.273,114.347Zm-16.676,0L253.528,0h8.627L89.6,114.347Zm-16.676,0L236.852,0h8.627L72.921,114.347Zm-16.676,0L220.178,0h8.627L56.247,114.347Zm-16.674,0L203.5,0h8.627L39.571,114.347Zm-16.676,0L186.826,0h8.627L22.9,114.347Zm-14.27,0v-1.6L170.15,0h8.627L6.22,114.347ZM0,101.7,153.475,0H162.1L0,107.415ZM0,90.649,136.8,0h8.627L0,96.367ZM0,79.6,120.125,0h8.627L0,85.317Zm0-11.05L103.449,0h8.627L0,74.265ZM0,57.5,86.773,0H95.4L0,63.217ZM0,46.451,70.1,0h8.627L0,52.169ZM0,35.4,53.424,0h8.627L0,41.117ZM0,24.351,36.748,0h8.627L0,30.067ZM0,13.3,20.072,0H28.7L0,19.017Z" transform="translate(149.538 103.904)" fill="currentColor" />
    <path id="路径_2022" data-name="路径 2022" d="M339.585,4v.672l-85.264,56.5h-.5V61.5L196.8,99.288h-.148v.1l-28.613,18.96h8.624l10.458-6.93v6.93h4.764V108.257l4.767-3.156v13.245h4.762v-16.4l4.764-3.156v19.558h4.764V95.629l4.764-3.156v25.873h4.767V89.316l4.762-3.156v32.186H230V83l4.764-3.156v38.5h4.767V76.688l4.762-3.159v44.816h4.764V70.373l4.764-3.159v51.131h4.764V64.06l4.767-3.159v57.444h4.762v-60.6l4.764-3.154v63.757h4.764V51.43l4.767-3.156v70.072h4.762V45.115l4.764-3.154v76.385h4.764V38.8l4.764-3.156v82.7h4.767V32.587h-.152L311,29.33v89.015h4.764V26.174l4.764-3.159v95.331h4.767V19.859l4.762-3.156V118.346h4.764V13.546l4.764-3.159V118.346h4.764V4Z" transform="translate(212.548 99.905)" fill="currentColor" />
    <path id="路径_2045" data-name="路径 2045" d="M160.092,56l47.551,71.833V115.554h-2.411l-3.154-4.764h5.565v-4.762h-8.719l-3.154-4.764h11.873V96.5H192.616l-3.154-4.764h18.181V86.971H186.308l-3.154-4.764h24.489V77.439H180l-3.154-4.764h30.8V67.911H173.694l-3.156-4.762h37.105V58.384H167.384L165.8,56Z" transform="translate(201.558 171.777)" fill="currentColor"/>
    <path id="联合_224" data-name="联合 224" d="M103.67,297.775,0,141.164V132.53L109.386,297.775Zm-22.212,0L0,174.717v-8.634L87.174,297.775Zm-33.317,0L0,225.049v-8.634l53.857,81.36Zm-11.106,0L0,241.825v-8.634l42.751,64.583Zm-11.106,0L0,258.6v-8.636l31.645,47.806Zm66.635,0L0,157.94v-8.63L98.28,297.773Zm-22.212,0L0,191.493v-8.63L76.068,297.773Zm-11.1,0L0,208.27v-8.632l64.963,98.134Zm-44.425,0L0,275.379v-8.634l20.539,31.028Zm-11.1,0L0,292.153v-8.632l9.434,14.251ZM0,124.387v-8.634L109.583,281.3v8.632Zm0-16.774V98.979L109.583,264.517v8.636ZM0,90.836V82.2L109.583,247.741v8.634ZM0,74.057V65.426L109.583,230.966V239.6ZM0,57.283V48.649L109.583,214.19v8.632ZM0,40.5v-8.63L109.583,197.411v8.634ZM0,23.727V15.094L109.583,180.634v8.632ZM0,6.949V0H1.111L109.583,163.858v8.632ZM6.5,0h5.716l97.362,147.081v8.632ZM17.611,0h5.714l86.257,130.3v8.632Zm11.1,0H34.43l75.153,113.528v8.632ZM39.82,0h5.716l64.045,96.751v8.634ZM50.926,0h5.716l52.941,79.975v8.632Z" transform="translate(299.619 227.778)" fill="currentColor"/>
    <path id="路径_2069" data-name="路径 2069" d="M314.037,118.345H71.053V4" transform="translate(78.489 99.904)" fill="currentColor" />
    <path id="路径_2070" data-name="路径 2070" d="M243.634,83V316.455H134.053" transform="translate(165.566 209.097)" fill="currentColor"/>
  </g>
</svg>
