<svg t="1729566185035" class="icon" viewBox="0 0 1024 1024" version="1.1" xmlns="http://www.w3.org/2000/svg" p-id="2045" width="200" height="200">
    <path fill="#666666" d="M42.666667 42.666667m42.666666 0l213.333334 0q42.666667 0 42.666666 42.666666l0 213.333334q0 42.666667-42.666666 42.666666l-213.333334 0q-42.666667 0-42.666666-42.666666l0-213.333334q0-42.666667 42.666666-42.666666Z" p-id="2046"></path>
    <path fill="#666666" d="M42.666667 384m42.666666 0l213.333334 0q42.666667 0 42.666666 42.666667l0 213.333333q0 42.666667-42.666666 42.666667l-213.333334 0q-42.666667 0-42.666666-42.666667l0-213.333333q0-42.666667 42.666666-42.666667Z" p-id="2047"></path>
    <path fill="#666666" d="M42.666667 725.333333m42.666666 0l213.333334 0q42.666667 0 42.666666 42.666667l0 213.333333q0 42.666667-42.666666 42.666667l-213.333334 0q-42.666667 0-42.666666-42.666667l0-213.333333q0-42.666667 42.666666-42.666667Z" p-id="2048"></path>
    <path fill="#666666" d="M384 42.666667m42.666667 0l213.333333 0q42.666667 0 42.666667 42.666666l0 213.333334q0 42.666667-42.666667 42.666666l-213.333333 0q-42.666667 0-42.666667-42.666666l0-213.333334q0-42.666667 42.666667-42.666666Z" p-id="2049"></path>
    <path fill="#666666" d="M384 384m42.666667 0l213.333333 0q42.666667 0 42.666667 42.666667l0 213.333333q0 42.666667-42.666667 42.666667l-213.333333 0q-42.666667 0-42.666667-42.666667l0-213.333333q0-42.666667 42.666667-42.666667Z" p-id="2050"></path>
    <path fill="#666666" d="M384 725.333333m42.666667 0l213.333333 0q42.666667 0 42.666667 42.666667l0 213.333333q0 42.666667-42.666667 42.666667l-213.333333 0q-42.666667 0-42.666667-42.666667l0-213.333333q0-42.666667 42.666667-42.666667Z" p-id="2051"></path>
    <path fill="#666666" d="M725.333333 42.666667m42.666667 0l213.333333 0q42.666667 0 42.666667 42.666666l0 213.333334q0 42.666667-42.666667 42.666666l-213.333333 0q-42.666667 0-42.666667-42.666666l0-213.333334q0-42.666667 42.666667-42.666666Z" p-id="2052"></path>
    <path fill="#666666" d="M725.333333 384m42.666667 0l213.333333 0q42.666667 0 42.666667 42.666667l0 213.333333q0 42.666667-42.666667 42.666667l-213.333333 0q-42.666667 0-42.666667-42.666667l0-213.333333q0-42.666667 42.666667-42.666667Z" p-id="2053"></path>
    <path fill="#666666" d="M725.333333 725.333333m42.666667 0l213.333333 0q42.666667 0 42.666667 42.666667l0 213.333333q0 42.666667-42.666667 42.666667l-213.333333 0q-42.666667 0-42.666667-42.666667l0-213.333333q0-42.666667 42.666667-42.666667Z" p-id="2054"></path>
</svg>